# xmcd
#
# Track frame offsets:
#	182
#	12947
#	24272
#	40545
#	56662
#	77235
#	92360
#	108212
#	127605
#	142440
#	157317
#	173880
#	192582
#	207365
#	222332
#	240105
#	257740
#	275690
#	291147
#	308027
#
# Disc length: 4364 seconds
#
# Revision: 7
# Processed by: cddbd v1.5.2PL0 Copyright (c) Steve Scherf et al.
# Submitted via: EZCDAudioConverter 4.0.9.1
#
DISCID=18110a14
DTITLE=Various Artist - #1 Country (Disk 1)
DYEAR=1989
DGENRE=Country
TTITLE0=Dwight Yoakum - Streets of Bakerfield
TTITLE1=Patty Loveless - Timber, I'm falling In Love
TTITLE2=Alabama - The Closer You Get
TTITLE3=Earl Thomas - We Believe in Happy Endings
TTITLE4=Hank Williams, Jr. - Ain't Misbehavin'
TTITLE5=Kathy Mattea - Eighteen Wheel and a Dozen Roses
TTITLE6=Steve Wariner - Where did I Go Wrong
TTITLE7=T. G. Sheppard - Slow Burn
TTITLE8=Lee Greenwood - Dixie Road
TTITLE9=Highway 101 - Somewhere Tonight
TTITLE10=Randy Travis - I Told You So
TTITLE11=K. T. Oslin - I'll Always Come back
TTITLE12=Nitty Gritty Dirt Band - Long Hard Road
TTITLE13=Forester Sisters - You Again
TTITLE14=Conway Twitty - Sombody's Needin' Sombody
TTITLE15=Eddy Raven - Joe Knows How to Live
TTITLE16=Restless Heart - The Bluest Eyes in Texas
TTITLE17=Frizzell and West - You're the Reason God made Oklahoma
TTITLE18=Gary Morris - 100 Percent Chance of Rain
TTITLE19=Crystal Gayle - Cry
EXTD=
EXTT0=
EXTT1=
EXTT2=
EXTT3=
EXTT4=
EXTT5=
EXTT6=
EXTT7=
EXTT8=
EXTT9=
EXTT10=
EXTT11=
EXTT12=
EXTT13=
EXTT14=
EXTT15=
EXTT16=
EXTT17=
EXTT18=
EXTT19=
PLAYORDER=
